<?xml version="1.0" encoding="UTF-8" standalone="no"?>
<svg
   width="200mm"
   height="200mm"
   version="1.1"
   viewBox="0 0 200 200"
   id="svg26"
   sodipodi:docname="percent_sign_logo.svg"
   inkscape:version="1.1.2 (0a00cf5339, 2022-02-04)"
   xmlns:inkscape="http://www.inkscape.org/namespaces/inkscape"
   xmlns:sodipodi="http://sodipodi.sourceforge.net/DTD/sodipodi-0.dtd"
   xmlns="http://www.w3.org/2000/svg"
   xmlns:svg="http://www.w3.org/2000/svg"
   xmlns:rdf="http://www.w3.org/1999/02/22-rdf-syntax-ns#"
   xmlns:cc="http://creativecommons.org/ns#"
   xmlns:dc="http://purl.org/dc/elements/1.1/">
  <defs
     id="defs30" />
  <sodipodi:namedview
     id="namedview28"
     pagecolor="#ffffff"
     bordercolor="#666666"
     borderopacity="1.0"
     inkscape:pageshadow="2"
     inkscape:pageopacity="0.0"
     inkscape:pagecheckerboard="0"
     inkscape:document-units="mm"
     showgrid="false"
     inkscape:zoom="0.62177083"
     inkscape:cx="377.1486"
     inkscape:cy="378.75691"
     inkscape:window-width="1366"
     inkscape:window-height="704"
     inkscape:window-x="0"
     inkscape:window-y="0"
     inkscape:window-maximized="1"
     inkscape:current-layer="g22" />
  <metadata
     id="metadata2">
    <rdf:RDF>
      <cc:Work
         rdf:about="">
        <dc:format>image/svg+xml</dc:format>
        <dc:type
           rdf:resource="http://purl.org/dc/dcmitype/StillImage" />
      </cc:Work>
    </rdf:RDF>
  </metadata>
  <g
     transform="translate(-27 -54.125)"
     id="g24">
    <rect
       x="30.689"
       y="57.814"
       width="192.62"
       height="192.62"
       ry="0"
       fill="none"
       stroke="#000"
       stroke-width="7.3775"
       id="rect4" />
    <g
       transform="translate(432.65 -1537.5)"
       id="g22">
      <g
         id="g277"
         transform="translate(-36.037242,0.14838565)">
        <path
           d="m -290.06,1645.2 q 9.6756,0 15.009,5.8663 5.4092,5.7902 5.4092,16.228 0,9.9042 -5.4854,15.694 -5.4854,5.7901 -14.856,5.7901 -9.5232,0 -14.932,-5.7901 -5.4092,-5.8663 -5.4092,-15.999 0,-10.133 5.4092,-15.923 5.4092,-5.8663 14.856,-5.8663 z m 0.0762,8.609 q -4.3426,0 -7.0091,3.657 -2.6665,3.6569 -2.6665,9.5232 0,5.8663 2.6665,9.5233 2.6665,3.6569 7.0091,3.6569 4.2664,0 6.9329,-3.5807 2.7427,-3.657 2.7427,-9.4471 0,-6.0949 -2.6665,-9.6756 -2.5903,-3.657 -7.0091,-3.657 z"
           id="path8" />
        <g
           transform="matrix(1.9047,0,0,1.9047,-1142.3,-8522.2)"
           stroke-width="3.4008"
           aria-label="o"
           id="g16">
          <path
             d="m 468.83,5364 q 5.08,0 7.88,3.08 2.84,3.04 2.84,8.52 0,5.2 -2.88,8.24 -2.88,3.04 -7.8,3.04 -5,0 -7.84,-3.04 -2.84,-3.08 -2.84,-8.4 0,-5.32 2.84,-8.36 2.84,-3.08 7.8,-3.08 z m 0.04,4.52 q -2.28,0 -3.68,1.92 -1.4,1.92 -1.4,5 0,3.08 1.4,5 1.4,1.92 3.68,1.92 2.24,0 3.64,-1.88 1.44,-1.92 1.44,-4.96 0,-3.2 -1.4,-5.08 -1.36,-1.92 -3.68,-1.92 z"
             id="path14" />
        </g>
        <g
           transform="matrix(1.4694,0.84833,-1.7374,3.0093,8384.1,-14865)"
           stroke-width="3.4008"
           aria-label="l"
           id="g20">
          <path
             d="m 464.79,5356.8 v 29.16 h -5.6 v -29.16 z"
             id="path18" />
        </g>
      </g>
    </g>
  </g>
</svg>
